<?xml version="1.0" encoding="utf-8"?>
<!-- Generator: Adobe Illustrator 24.2.1, SVG Export Plug-In . SVG Version: 6.00 Build 0)  -->
<svg version="1.1" xmlns="http://www.w3.org/2000/svg" xmlns:xlink="http://www.w3.org/1999/xlink" x="0px" y="0px"
	 viewBox="0 0 760.7 661.9" style="enable-background:new 0 0 760.7 661.9;" xml:space="preserve">
<style type="text/css">
	.st0{display:none;}
	.st1{display:inline;fill:#D3CF40;}
</style>
<g id="Layer_2" class="st0">
	<rect y="115.1" class="st1" width="760.7" height="421.4"/>
</g>
<g id="Layer_1">
	<path d="M740.5,344c6.5-7.4,13.1-15.1,19.5-22.9c-6.6-7.7-13.2-15.3-19.8-22.6c-113-124.7-233.1-186.3-357.9-183.2
		c-38.1,0.9-76.6,8-115,21L131.1,0l-82,82l108.3,108.3c-23.6,15.2-46.9,32.6-69.7,52.1c-27,23-49.8,45.8-67.7,65.4
		C12.4,316,5.8,323.6,0,330.4c6,6.9,12.8,14.3,20.2,22.2c16.5,17.5,36.5,37,59.5,56.6c41.9,35.7,85.4,64.5,129.1,85.4
		c55,26.3,110.7,40.4,165.6,41.7c3,0.1,5.9,0.1,8.8,0.1c35.3,0,70.2-5.2,104.7-15.5l140.9,140.9l82-82L599.6,468.5
		C647.6,437.5,694.6,395.9,740.5,344z M380,162.3c90.1,0,163.5,73.3,163.5,163.5c0,25.3-5.8,49.2-16,70.6l-49.6-49.6
		c1.4-6.7,2.2-13.7,2.2-20.9c0-14.5-3.1-28.3-8.7-40.8c-6.6,7.7-16.3,12.5-27.2,12.5c-19.8,0-35.9-16.1-35.9-35.9
		c0-10.9,4.9-20.6,12.5-27.2c-12.4-5.6-26.2-8.7-40.8-8.7c-7.2,0-14.2,0.8-20.9,2.2l-49.6-49.6C330.8,168.1,354.7,162.3,380,162.3z
		 M97.1,384.1c-21.9-18.6-41-37.3-56.9-54.1c17.3-18.9,39.2-40.7,64.9-62.6c21.1-17.9,46.3-37.1,74.8-54.7l27,27
		c-12.9,25.9-20.2,55.2-20.2,86.1c0,66.5,33.7,125.3,85,160.1C200.3,462.4,140.1,420.7,97.1,384.1z M380,489.2
		c-90.1,0-163.5-73.3-163.5-163.5c0-22.5,4.6-43.9,12.8-63.5l51.4,51.4c-0.5,4-0.7,8-0.7,12.1c0,55.2,44.8,100,100,100
		c4.1,0,8.1-0.3,12.1-0.7l51.4,51.4C423.9,484.7,402.5,489.2,380,489.2z M577.1,446l-27.4-27.4c15.1-27.6,23.8-59.2,23.8-92.8
		c0-71.5-39-134.1-96.8-167.5c83.9,22,165.5,76.6,244,163.1C673.9,374.4,626,416,577.1,446z"/>
</g>
</svg>
