<?xml version="1.0" encoding="utf-8"?>
<!-- Generator: Adobe Illustrator 24.2.1, SVG Export Plug-In . SVG Version: 6.00 Build 0)  -->
<svg version="1.1" xmlns="http://www.w3.org/2000/svg" xmlns:xlink="http://www.w3.org/1999/xlink" x="0px" y="0px"
	 viewBox="0 0 761.3 422.4" style="enable-background:new 0 0 761.3 422.4;" xml:space="preserve">
<style type="text/css">
	.st0{display:none;}
	.st1{display:inline;fill:#D3CF40;}
</style>
<g id="Layer_2" class="st0">
	<rect x="0.7" y="0.5" class="st1" width="760.7" height="421.4"/>
</g>
<g id="Layer_1">
	<g>
		<path d="M740.9,183.8C627.9,59.1,507.8-2.4,383,0.6C328.2,2,272.4,16,217.4,42.3c-43.8,21-87.2,49.7-129.1,85.4
			c-27,23-49.8,45.8-67.7,65.4c-7.5,8.2-14.1,15.8-19.9,22.6c6,6.9,12.8,14.3,20.2,22.2c16.5,17.5,36.5,37,59.5,56.6
			c41.9,35.7,85.4,64.5,129.1,85.4c55,26.3,110.7,40.4,165.6,41.7c3,0.1,5.9,0.1,8.8,0.1c124.6,0,244.5-64.7,357.2-192.5
			c6.5-7.4,13.1-15.1,19.5-22.9C754.1,198.7,747.5,191.2,740.9,183.8z M380.7,374.6c-90.1,0-163.5-73.3-163.5-163.5
			S290.5,47.7,380.7,47.7S544.1,121,544.1,211.2S470.8,374.6,380.7,374.6z M97.7,269.5c-21.9-18.6-41-37.3-56.9-54.1
			c17.3-18.9,39.2-40.7,64.9-62.6c39.9-33.9,94.5-72.2,158.9-96.3c-46.9,35.3-77.3,91.5-77.3,154.6c0,66.5,33.7,125.3,85,160.1
			C201,347.8,140.8,306.1,97.7,269.5z M484.3,374.4c53.9-34.4,89.8-94.7,89.8-163.3c0-71.5-39-134.1-96.8-167.5
			c83.9,22,165.5,76.6,244,163.1C645.1,293.2,565.8,349.2,484.3,374.4z"/>
		<path d="M444.8,183c-19.8,0-35.9-16.1-35.9-35.9c0-10.9,4.9-20.6,12.5-27.2c-12.4-5.6-26.2-8.7-40.8-8.7c-55.2,0-100,44.8-100,100
			s44.8,100,100,100c55.2,0,100-44.8,100-100c0-14.5-3.1-28.3-8.7-40.8C465.4,178.1,455.7,183,444.8,183z"/>
	</g>
</g>
</svg>
