<?xml version="1.0" encoding="utf-8"?>
<!-- Generator: Adobe Illustrator 24.2.3, SVG Export Plug-In . SVG Version: 6.00 Build 0)  -->
<svg version="1.1" id="Layer_1" xmlns="http://www.w3.org/2000/svg" xmlns:xlink="http://www.w3.org/1999/xlink" x="0px" y="0px"
	 viewBox="0 0 20 14" style="enable-background:new 0 0 20 14;" xml:space="preserve">
<desc>Created with Sketch.</desc>
<path d="M19.8,7.3c-1.5-3.8-5.2-6.5-9.5-6.5c-1.4,0-2.8,0.3-4.1,0.9L4.8,0.3H0.1l3.4,3.1C2.4,4.4,1.4,5.7,0.8,7.3
	c1.5,3.8,5.2,6.5,9.5,6.5c1.4,0,2.7-0.3,3.9-0.8l1,0.9h4.6L17,11.3C18.2,10.2,19.2,8.8,19.8,7.3z M10.3,2.9c2.4,0,4.3,1.9,4.3,4.3
	c0,0.6-0.1,1.1-0.3,1.6l-1.4-1.3c0-0.1,0-0.2,0-0.3c0-1.4-1.2-2.6-2.6-2.6c-0.2,0-0.4,0-0.6,0.1L8.3,3.5C8.9,3.1,9.6,2.9,10.3,2.9z
	 M10.3,11.6C7.9,11.6,6,9.6,6,7.3c0-0.5,0.1-1,0.3-1.4l1.5,1.3c0,0,0,0.1,0,0.1c0,1.4,1.2,2.6,2.6,2.6c0.1,0,0.3,0,0.4,0l1.5,1.3
	C11.6,11.4,11,11.6,10.3,11.6z"/>
</svg>
