<?xml version="1.0" encoding="utf-8"?>
<!-- Generator: Adobe Illustrator 23.1.0, SVG Export Plug-In . SVG Version: 6.00 Build 0)  -->
<svg version="1.1" id="Layer_1" xmlns="http://www.w3.org/2000/svg" xmlns:xlink="http://www.w3.org/1999/xlink" x="0px" y="0px"
	 viewBox="0 0 18 18" style="enable-background:new 0 0 18 18;" xml:space="preserve">
<rect y="0.032" width="1" height="1"/>
<rect y="1.032" width="1" height="1"/>
<rect x="1" y="0.032" width="1" height="1"/>
<rect x="1" y="1.032" width="1" height="1"/>
<rect x="16" y="16" width="1" height="1"/>
<rect x="16" y="17" width="1" height="1"/>
<rect x="17" y="16" width="1" height="1"/>
<rect x="17" y="17" width="1" height="1"/>
<rect x="16" y="0.032" width="1" height="1"/>
<rect x="16" y="1.032" width="1" height="1"/>
<rect x="17" y="0.032" width="1" height="1"/>
<rect x="17" y="1.032" width="1" height="1"/>
<rect y="16" width="1" height="1"/>
<rect y="17" width="1" height="1"/>
<rect x="1" y="16" width="1" height="1"/>
<rect x="1" y="17" width="1" height="1"/>
<g>
	<rect x="4" y="0.032" width="1" height="1"/>
	<rect x="4" y="1.032" width="1" height="1"/>
	<rect x="5" y="0.032" width="1" height="1"/>
	<rect x="5" y="1.032" width="1" height="1"/>
</g>
<g>
	<rect x="8" y="0.032" width="1" height="1"/>
	<rect x="8" y="1.032" width="1" height="1"/>
	<rect x="9" y="0.032" width="1" height="1"/>
	<rect x="9" y="1.032" width="1" height="1"/>
</g>
<g>
	<rect x="12" y="0.032" width="1" height="1"/>
	<rect x="12" y="1.032" width="1" height="1"/>
	<rect x="13" y="0.032" width="1" height="1"/>
	<rect x="13" y="1.032" width="1" height="1"/>
</g>
<g>
	<rect x="16" y="13.016" transform="matrix(6.123234e-17 -1 1 6.123234e-17 2.984 30.016)" width="1" height="1"/>
	<rect x="17" y="13.016" transform="matrix(6.123234e-17 -1 1 6.123234e-17 3.984 31.016)" width="1" height="1"/>
	<rect x="16" y="12.016" transform="matrix(6.123234e-17 -1 1 6.123234e-17 3.984 29.016)" width="1" height="1"/>
	<rect x="17" y="12.016" transform="matrix(6.123234e-17 -1 1 6.123234e-17 4.984 30.016)" width="1" height="1"/>
</g>
<g>
	<rect x="16" y="9.016" transform="matrix(6.123234e-17 -1 1 6.123234e-17 6.984 26.016)" width="1" height="1"/>
	<rect x="17" y="9.016" transform="matrix(6.123234e-17 -1 1 6.123234e-17 7.984 27.016)" width="1" height="1"/>
	<rect x="16" y="8.016" transform="matrix(6.123234e-17 -1 1 6.123234e-17 7.984 25.016)" width="1" height="1"/>
	<rect x="17" y="8.016" transform="matrix(6.123234e-17 -1 1 6.123234e-17 8.984 26.016)" width="1" height="1"/>
</g>
<g>
	<rect x="16" y="5.016" transform="matrix(6.123234e-17 -1 1 6.123234e-17 10.984 22.016)" width="1" height="1"/>
	<rect x="17" y="5.016" transform="matrix(6.123234e-17 -1 1 6.123234e-17 11.984 23.016)" width="1" height="1"/>
	<rect x="16" y="4.016" transform="matrix(6.123234e-17 -1 1 6.123234e-17 11.984 21.016)" width="1" height="1"/>
	<rect x="17" y="4.016" transform="matrix(6.123234e-17 -1 1 6.123234e-17 12.984 22.016)" width="1" height="1"/>
</g>
<g>
	<rect x="4" y="16" width="1" height="1"/>
	<rect x="4" y="17" width="1" height="1"/>
	<rect x="5" y="16" width="1" height="1"/>
	<rect x="5" y="17" width="1" height="1"/>
</g>
<g>
	<rect x="8" y="16" width="1" height="1"/>
	<rect x="8" y="17" width="1" height="1"/>
	<rect x="9" y="16" width="1" height="1"/>
	<rect x="9" y="17" width="1" height="1"/>
</g>
<g>
	<rect x="12" y="16" width="1" height="1"/>
	<rect x="12" y="17" width="1" height="1"/>
	<rect x="13" y="16" width="1" height="1"/>
	<rect x="13" y="17" width="1" height="1"/>
</g>
<g>
	<rect y="13.016" transform="matrix(6.123234e-17 -1 1 6.123234e-17 -13.016 14.016)" width="1" height="1"/>
	<rect x="1" y="13.016" transform="matrix(6.123234e-17 -1 1 6.123234e-17 -12.016 15.016)" width="1" height="1"/>
	<rect y="12.016" transform="matrix(6.123234e-17 -1 1 6.123234e-17 -12.016 13.016)" width="1" height="1"/>
	<rect x="1" y="12.016" transform="matrix(6.123234e-17 -1 1 6.123234e-17 -11.016 14.016)" width="1" height="1"/>
</g>
<g>
	<rect x="0" y="9.016" transform="matrix(6.123234e-17 -1 1 6.123234e-17 -9.016 10.016)" width="1" height="1"/>
	<rect x="1" y="9.016" transform="matrix(6.123234e-17 -1 1 6.123234e-17 -8.016 11.016)" width="1" height="1"/>
	<rect y="8.016" transform="matrix(6.123234e-17 -1 1 6.123234e-17 -8.016 9.016)" width="1" height="1"/>
	<rect x="1" y="8.016" transform="matrix(6.123234e-17 -1 1 6.123234e-17 -7.016 10.016)" width="1" height="1"/>
</g>
<g>
	<rect y="5.016" transform="matrix(6.123234e-17 -1 1 6.123234e-17 -5.016 6.016)" width="1" height="1"/>
	<rect x="1" y="5.016" transform="matrix(6.123234e-17 -1 1 6.123234e-17 -4.016 7.016)" width="1" height="1"/>
	<rect y="4.016" transform="matrix(6.123234e-17 -1 1 6.123234e-17 -4.016 5.016)" width="1" height="1"/>
	<rect x="1" y="4.016" transform="matrix(6.123234e-17 -1 1 6.123234e-17 -3.016 6.016)" width="1" height="1"/>
</g>
<g>
	<rect x="12" y="13.016" transform="matrix(6.123234e-17 -1 1 6.123234e-17 -1.016 26.016)" width="1" height="1"/>
	<rect x="13" y="13.016" transform="matrix(6.123234e-17 -1 1 6.123234e-17 -0.016 27.016)" width="1" height="1"/>
	<rect x="12" y="12.016" transform="matrix(6.123234e-17 -1 1 6.123234e-17 -0.016 25.016)" width="1" height="1"/>
	<rect x="13" y="12.016" transform="matrix(6.123234e-17 -1 1 6.123234e-17 0.984 26.016)" width="1" height="1"/>
</g>
<g>
	<rect x="14" y="15.016" transform="matrix(6.123234e-17 -1 1 6.123234e-17 -1.016 30.016)" width="1" height="1"/>
	<rect x="15" y="15.016" transform="matrix(6.123234e-17 -1 1 6.123234e-17 -0.016 31.016)" width="1" height="1"/>
	<rect x="14" y="14.016" transform="matrix(6.123234e-17 -1 1 6.123234e-17 -0.016 29.016)" width="1" height="1"/>
	<rect x="15" y="14.016" transform="matrix(6.123234e-17 -1 1 6.123234e-17 0.984 30.016)" width="1" height="1"/>
</g>
</svg>
