<!-- Generated by IcoMoon.io -->
<svg version="1.1" xmlns="http://www.w3.org/2000/svg" width="32" height="32" viewBox="0 0 32 32">
<title>spinner</title>
<path d="M7.836 21.372c-0.747 0-1.382 0.261-1.905 0.784s-0.784 1.158-0.784 1.905c0 0.747 0.261 1.382 0.784 1.905s1.158 0.784 1.905 0.784c0.735 0 1.367-0.261 1.896-0.784s0.794-1.158 0.794-1.905c0-0.747-0.264-1.382-0.794-1.905-0.529-0.522-1.161-0.784-1.896-0.784z"></path>
<path d="M7.105 16.054c0-0.77-0.274-1.428-0.822-1.977s-1.207-0.822-1.977-0.822c-0.77 0-1.429 0.274-1.977 0.822s-0.822 1.207-0.822 1.977c0 0.77 0.274 1.428 0.822 1.976s1.207 0.822 1.977 0.822c0.77 0 1.429-0.274 1.977-0.822s0.822-1.207 0.822-1.976z"></path>
<path d="M24.629 12.197c0.739 0 1.373-0.264 1.899-0.79s0.791-1.16 0.791-1.9c0-0.74-0.264-1.373-0.791-1.899s-1.16-0.79-1.899-0.79c-0.74 0-1.373 0.264-1.9 0.79s-0.79 1.159-0.79 1.899 0.263 1.373 0.79 1.9c0.527 0.527 1.16 0.79 1.9 0.79z"></path>
<path d="M7.665 5.139c-0.851 0-1.577 0.3-2.178 0.901s-0.901 1.326-0.901 2.178c0 0.852 0.3 1.577 0.901 2.178s1.327 0.901 2.178 0.901 1.577-0.3 2.178-0.901c0.601-0.601 0.901-1.327 0.901-2.178s-0.3-1.577-0.901-2.178-1.326-0.901-2.178-0.901z"></path>
<path d="M29.613 15.159c-0.523-0.523-1.158-0.784-1.905-0.784s-1.383 0.261-1.906 0.784c-0.523 0.523-0.784 1.158-0.784 1.906s0.261 1.383 0.784 1.905c0.523 0.523 1.158 0.785 1.906 0.785s1.383-0.261 1.905-0.785c0.523-0.522 0.784-1.158 0.784-1.905s-0.261-1.383-0.784-1.906z"></path>
<path d="M24.069 21.932c-0.737 0-1.369 0.264-1.898 0.792s-0.792 1.161-0.792 1.897c0 0.736 0.264 1.369 0.792 1.898s1.161 0.792 1.898 0.792c0.736 0 1.369-0.264 1.897-0.792s0.793-1.161 0.793-1.898c0-0.737-0.264-1.369-0.793-1.897s-1.161-0.792-1.897-0.792z"></path>
<path d="M15.952 25.010c-0.742 0-1.376 0.263-1.902 0.788s-0.788 1.159-0.788 1.901 0.262 1.376 0.788 1.901c0.526 0.525 1.159 0.788 1.902 0.788s1.376-0.263 1.902-0.788c0.525-0.525 0.788-1.159 0.788-1.901s-0.263-1.376-0.788-1.901c-0.525-0.525-1.159-0.788-1.902-0.788z"></path>
<path d="M15.502 1.5c-0.933 0-1.726 0.326-2.379 0.979s-0.979 1.446-0.979 2.379c0 0.933 0.326 1.726 0.979 2.379s1.446 0.979 2.379 0.979c0.933 0 1.726-0.326 2.379-0.979s0.979-1.446 0.979-2.379c0-0.933-0.326-1.726-0.979-2.379s-1.446-0.979-2.379-0.979z"></path>
</svg>
